<?xml version="1.0" encoding="UTF-8" standalone="no"?>
<!-- Created with Inkscape (http://www.inkscape.org/) -->

<svg
   width="1268.0643mm"
   height="1307.1385mm"
   viewBox="0 0 1268.0644 1307.1385"
   version="1.1"
   id="svg1"
   inkscape:version="1.4.2 (f4327f4, 2025-05-13)"
   sodipodi:docname="Elsabor.svg"
   xml:space="preserve"
   inkscape:export-batch-path="Logo proyecto"
   inkscape:export-batch-name=""
   xmlns:inkscape="http://www.inkscape.org/namespaces/inkscape"
   xmlns:sodipodi="http://sodipodi.sourceforge.net/DTD/sodipodi-0.dtd"
   xmlns="http://www.w3.org/2000/svg"
   xmlns:svg="http://www.w3.org/2000/svg"><sodipodi:namedview
     id="namedview1"
     pagecolor="#bdbdbd"
     bordercolor="#000000"
     borderopacity="0.25"
     inkscape:showpageshadow="2"
     inkscape:pageopacity="0.0"
     inkscape:pagecheckerboard="0"
     inkscape:deskcolor="#d1d1d1"
     inkscape:document-units="mm"
     inkscape:zoom="0.50835205"
     inkscape:cx="292.12039"
     inkscape:cy="705.21994"
     inkscape:window-width="1920"
     inkscape:window-height="1009"
     inkscape:window-x="-8"
     inkscape:window-y="-8"
     inkscape:window-maximized="1"
     inkscape:current-layer="layer1" /><defs
     id="defs1" /><g
     inkscape:label="Capa 1"
     inkscape:groupmode="layer"
     id="layer1"
     transform="translate(2388.009,2219.7917)"><g
       id="icon-black"
       transform="matrix(3.2895264,0,0,4.8555529,2358.3608,3365.7067)"
       style="fill:#000000"><path
         d="m -1313.7005,-945.9529 q -10.5915,0 -19.4928,-4.0176 -8.9014,-4.0175 -14.5351,-11.3316 l 18.5914,-17.7184 q 2.9296,3.5025 6.3098,5.3567 3.3803,1.8543 7.2112,1.8543 5.7465,0 8.676,-2.6784 3.0423,-2.7814 3.0423,-8.1381 v -114.655 h 27.9435 v 117.7454 q 0,15.9672 -9.9155,24.8265 -9.9154,8.7562 -27.8308,8.7562 z"
         id="path85-4-7"
         style="font-size:1343.78px;font-family:Bahnschrift;-inkscape-font-specification:'Bahnschrift, @wght=700,wdth=75';font-variation-settings:'wdth' 75, 'wght' 700;white-space:pre;fill:#000000;stroke:#29299a;stroke-width:0.01055;stroke-linecap:round;stroke-linejoin:round;stroke-opacity:1"
         aria-label="J" /><path
         d="m -1198.3918,-945.1803 q -12.9577,0 -22.197,-4.3266 -9.1267,-4.4296 -14.0844,-12.6708 -4.8451,-8.2411 -4.8451,-19.9847 v -8.0352 l 27.8308,-0.206 v 8.0351 q 0,5.6658 3.493,8.9623 3.4929,3.1934 9.69,3.1934 6.0845,0 9.3521,-3.1934 3.3802,-3.1935 3.3802,-8.7562 v -13.0829 q 0,-4.6356 -3.0422,-7.726 -2.9296,-3.1935 -7.8873,-5.6658 -4.9577,-2.5754 -10.7041,-5.1507 -5.5211,-2.5754 -11.2675,-5.7689 -5.6338,-3.1934 -10.3662,-7.623 -4.6197,-4.5326 -7.5492,-11.0225 -2.8169,-6.4899 -2.8169,-15.6582 v -7.7261 q 0,-17.3064 10.5915,-26.8867 10.7041,-9.5804 30.0843,-9.5804 18.8168,0 29.4082,9.6834 10.5915,9.6833 10.5915,27.1958 v 8.4471 l -27.8308,0.3091 v -8.5502 q 0,-5.7688 -3.2676,-8.9623 -3.1549,-3.2964 -8.9013,-3.2964 -6.0845,0 -9.4647,2.9874 -3.2676,2.8844 -3.2676,8.0351 v 9.9924 q 0,5.2537 3.3802,8.6532 3.493,3.2965 8.9014,5.8718 5.5211,2.4724 11.6055,5.4598 5.2958,2.4723 10.4788,5.3567 5.2958,2.8844 9.5774,7.005 4.3944,4.1206 6.9859,10.1984 2.7042,6.0779 2.7042,15.0401 v 12.4648 q 0,17.5124 -10.7041,27.2987 -10.5915,9.6834 -29.859,9.6834 z"
         id="path86-6-8"
         style="font-size:1343.78px;font-family:Bahnschrift;-inkscape-font-specification:'Bahnschrift, @wght=700,wdth=75';font-variation-settings:'wdth' 75, 'wght' 700;white-space:pre;fill:#000000;stroke:#29299a;stroke-width:0.01055;stroke-linecap:round;stroke-linejoin:round;stroke-opacity:1"
         aria-label="S" /><path
         d="m -1118.3505,-946.7255 v -24.5174 h 20.9576 q 5.6337,0 8.676,-3.0905 3.0422,-3.1934 3.0422,-8.8592 v -76.8487 q 0,-5.7688 -3.0422,-8.8592 -3.0423,-3.0904 -8.676,-3.0904 h -20.9576 v -24.5175 h 23.7745 q 17.69,0 27.3801,8.8593 9.8027,8.7562 9.8027,24.7234 v 82.6175 q 0,10.6105 -4.3943,18.1305 -4.3944,7.5201 -12.7323,11.5376 -8.338,3.9146 -20.1689,3.9146 z m -18.5915,0 v -149.7829 h 27.9435 v 149.7829 z"
         id="path87-0-8"
         style="font-size:1343.78px;font-family:Bahnschrift;-inkscape-font-specification:'Bahnschrift, @wght=700,wdth=75';font-variation-settings:'wdth' 75, 'wght' 700;white-space:pre;fill:#000000;stroke:#29299a;stroke-width:0.01055;stroke-linecap:round;stroke-linejoin:round;stroke-opacity:1"
         aria-label="D" /><path
         style="font-variation-settings:'wdth' 75, 'wght' 700;fill:#000000;fill-opacity:0;stroke:#000000;stroke-width:10;stroke-linecap:round;stroke-linejoin:round;stroke-dasharray:none;stroke-opacity:1"
         d="m -1437.8733,-1045.307 103.7905,-97.8009 163.5757,-2.2242"
         id="path88-6-2" /><path
         style="font-variation-settings:'wdth' 75, 'wght' 700;fill:#000000;fill-opacity:0;stroke:#000000;stroke-width:10;stroke-linecap:round;stroke-linejoin:round;stroke-dasharray:none;stroke-opacity:1"
         d="m -1435.2816,-986.15231 103.7905,97.8009 163.5757,2.2242"
         id="path89-6-9" /><path
         style="font-variation-settings:'wdth' 75, 'wght' 700;fill:#000000;fill-opacity:0;stroke:#000000;stroke-width:10;stroke-linecap:round;stroke-linejoin:round;stroke-dasharray:none;stroke-opacity:1"
         d="m -1315.0628,-1130.735 -80.2194,108.3291 77.8335,117.0921"
         id="path90-1-1" /></g></g></svg>
