<?xml version="1.0" encoding="UTF-8" standalone="no"?>
<!-- Created with Inkscape (http://www.inkscape.org/) -->

<svg
   width="1279.4362mm"
   height="269.47141mm"
   viewBox="0 0 1279.4362 269.4714"
   version="1.1"
   id="svg1"
   inkscape:version="1.4.2 (f4327f4, 2025-05-13)"
   sodipodi:docname="Elsabor.svg"
   xml:space="preserve"
   inkscape:export-batch-path="Logo proyecto"
   inkscape:export-batch-name=""
   xmlns:inkscape="http://www.inkscape.org/namespaces/inkscape"
   xmlns:sodipodi="http://sodipodi.sourceforge.net/DTD/sodipodi-0.dtd"
   xmlns="http://www.w3.org/2000/svg"
   xmlns:svg="http://www.w3.org/2000/svg"><sodipodi:namedview
     id="namedview1"
     pagecolor="#bdbdbd"
     bordercolor="#000000"
     borderopacity="0.25"
     inkscape:showpageshadow="2"
     inkscape:pageopacity="0.0"
     inkscape:pagecheckerboard="0"
     inkscape:deskcolor="#d1d1d1"
     inkscape:document-units="mm"
     inkscape:zoom="0.50835205"
     inkscape:cx="292.12039"
     inkscape:cy="705.21994"
     inkscape:window-width="1920"
     inkscape:window-height="1009"
     inkscape:window-x="-8"
     inkscape:window-y="-8"
     inkscape:window-maximized="1"
     inkscape:current-layer="layer1" /><defs
     id="defs1"><rect
       x="58.421097"
       y="121.01513"
       width="648.19598"
       height="204.47385"
       id="rect2" /></defs><g
     inkscape:label="Capa 1"
     inkscape:groupmode="layer"
     id="layer1"
     transform="translate(3824.1979,3577.6703)"><g
       id="Lockup-Dark-BG"
       transform="matrix(0.75867809,0,0,1.00099,-2731.7553,-1683.5169)"><g
         id="g47"
         transform="translate(2096.4104,-814.25474)"
         style="fill:#ffffff"><g
           id="g46"
           transform="matrix(15.042025,0,0,11.092891,-3881.3943,-1651.409)"
           style="fill:#ffffff"><g
             id="g45"
             style="fill:#ffffff"><g
               id="g43"
               transform="translate(96.835512,80.898228)"
               style="fill:#ffffff"><path
                 d="m 8.8726249,-19.556841 -2.587956,9.328376 h 2.75332 l 2.5879561,-9.328376 z"
                 style="font-style:italic;font-weight:500;font-size:64px;font-family:'LEMON MILK';-inkscape-font-specification:'LEMON MILK, Medium Italic';white-space:pre;shape-inside:url(#rect2);fill:#ffffff;stroke-width:0.0537528;stroke-linecap:round;stroke-linejoin:round"
                 id="path38" /><path
                 d="m -10.921516,-19.556841 -2.587956,9.328376 h 7.7142579 l 0.520899,-1.863361 h -4.9609379 l 0.5291669,-1.927015 h 4.216797 l 0.520898,-1.869148 h -4.216797 l 0.504362,-1.822852 h 4.960938 l 0.51263,-1.846 z"
                 style="font-style:italic;font-weight:500;font-size:64px;font-family:'LEMON MILK';-inkscape-font-specification:'LEMON MILK, Medium Italic';white-space:pre;shape-inside:url(#rect2);fill:#ffffff;stroke-width:0.0537528;stroke-linecap:round;stroke-linejoin:round"
                 id="path39" /><path
                 d="m -19.35511,-23.636255 -3.861263,0.0083 -2.587955,13.320117 h 3.861263 c 1.008724,0 7.135482,0 7.962304,-6.647656 0.636654,-5.101497 -2.778125,-6.688997 -5.374349,-6.680729 z m -1.620572,2.654101 h 1.083138 c 1.860351,0 3.497461,1.347722 3.117122,4.010091 -0.347266,2.422592 -2.10013,3.993555 -4.646745,3.993555 h -1.107943 z"
                 style="font-style:italic;font-weight:500;font-size:64px;font-family:'LEMON MILK';-inkscape-font-specification:'LEMON MILK, Medium Italic';white-space:pre;shape-inside:url(#rect2);fill:#ffffff;stroke-width:0.064252;stroke-linecap:round;stroke-linejoin:round"
                 id="path40" /><path
                 d="m 27.980506,-19.730446 -2.64584,9.513555 h 2.74506 l 1.43867,-5.202364 5.81256,5.364395 h 0.239776 l 2.64583,-9.525129 h -2.745046 l -1.44694,5.196577 -5.79603,-5.347034 z"
                 style="font-style:italic;font-weight:500;font-size:64px;font-family:'LEMON MILK';-inkscape-font-specification:'LEMON MILK, Medium Italic';white-space:pre;shape-inside:url(#rect2);fill:#ffffff;stroke-width:0.0537528;stroke-linecap:round;stroke-linejoin:round"
                 id="path41" /><path
                 d="m 20.043002,-19.747807 c -4.125846,0 -7.325651,2.002245 -7.970572,4.866727 -0.628386,2.777681 1.521354,4.837794 5.457031,4.837794 3.753776,0 6.581515,-1.869148 7.309115,-4.635254 0.0331,-0.127311 0.0992,-0.393505 0.14056,-0.78701 h -6.019272 l -0.479557,1.730263 h 3.03444 c -0.28112,0.486095 -1.480013,1.805493 -3.613216,1.805493 -2.033984,0 -3.538802,-1.180514 -3.075781,-2.951286 0.463021,-1.782345 2.604492,-2.968646 4.530989,-2.968646 1.281576,0 2.091862,0.526602 2.836003,1.290464 l 1.901694,-1.556658 c -0.884702,-0.891172 -2.422592,-1.614526 -4.051434,-1.631887 z"
                 style="font-style:italic;font-weight:500;font-size:64px;font-family:'LEMON MILK';-inkscape-font-specification:'LEMON MILK, Medium Italic';white-space:pre;shape-inside:url(#rect2);fill:#ffffff;stroke-width:0.0537528;stroke-linecap:round;stroke-linejoin:round"
                 id="path42" /><path
                 d="m 2.8202809,-19.753594 c -2.22415405,0 -4.150651,0.937467 -4.547526,2.320521 -0.454753,1.585592 0.87643195,2.355241 2.16627595,2.916564 0.93431005,0.405078 2.36471405,0.954827 2.17454405,1.724477 -0.148828,0.578683 -1.091406,0.862238 -1.86035105,0.862238 -0.992188,0 -1.94303395,-0.393505 -2.57968795,-1.192088 l -2.174544,1.04163 c 0.587044,1.180515 2.174544,2.036966 4.38216095,2.036966 2.66237005,0 4.53925805,-1.111072 4.95267005,-2.627223 0.330729,-1.192088 -0.380339,-2.077474 -2.472201,-2.962859 -1.066601,-0.451373 -2.10013005,-0.746501 -1.95130205,-1.406201 0.0992202,-0.462947 0.73587305,-0.873812 1.53789105,-0.873812 0.768945,0 1.521354,0.324063 1.744596,0.908533 l 2.166276,-1.035843 c -0.347265,-0.966401 -1.752864,-1.712903 -3.538802,-1.712903 z"
                 style="font-style:italic;font-weight:500;font-size:64px;font-family:'LEMON MILK';-inkscape-font-specification:'LEMON MILK, Medium Italic';white-space:pre;shape-inside:url(#rect2);fill:#ffffff;stroke-width:0.0537528;stroke-linecap:round;stroke-linejoin:round"
                 id="path43" /></g><path
               d="m 57.55566,57.073002 -1.554427,8.268229 c -0.314193,1.670183 -1.380794,2.687175 -2.94349,2.687175 -0.636653,0 -1.058333,-0.198438 -1.430403,-0.595313 l -1.670183,2.182813 c 0.595313,0.694531 1.488282,1.083138 2.563151,1.083138 3.472657,0 5.547982,-1.810742 6.217709,-5.341276 L 60.30898,57.08127 Z"
               style="font-style:italic;font-weight:500;font-size:64px;font-family:'LEMON MILK';-inkscape-font-specification:'LEMON MILK, Medium Italic';white-space:pre;shape-inside:url(#rect2);fill:#ffffff;stroke-width:0.064252;stroke-linecap:round;stroke-linejoin:round"
               id="path44" /><path
               d="m 66.601103,56.791882 c -2.224154,0 -4.150651,1.339453 -4.547526,3.31556 -0.454753,2.265495 0.876432,3.36517 2.166276,4.167188 0.93431,0.578776 2.364713,1.364258 2.174544,2.463932 -0.148828,0.826823 -1.091406,1.231966 -1.860352,1.231966 -0.992187,0 -1.943033,-0.562239 -2.579687,-1.703255 l -2.174544,1.488281 c 0.587044,1.686719 2.174544,2.910417 4.382161,2.910417 2.66237,0 4.539258,-1.5875 4.952669,-3.753776 0.33073,-1.703255 -0.380338,-2.968294 -2.4722,-4.233334 -1.066602,-0.644921 -2.10013,-1.066601 -1.951302,-2.009179 0.09922,-0.661459 0.735872,-1.248503 1.53789,-1.248503 0.768946,0 1.521355,0.463021 1.744597,1.298112 l 2.166276,-1.480013 C 69.792639,57.858484 68.38704,56.791882 66.601103,56.791882 Z"
               style="font-style:italic;font-weight:500;font-size:64px;font-family:'LEMON MILK';-inkscape-font-specification:'LEMON MILK, Medium Italic';white-space:pre;shape-inside:url(#rect2);fill:#ffffff;stroke-width:0.064252;stroke-linecap:round;stroke-linejoin:round"
               id="path45" /></g></g></g><g
         id="g52"
         transform="translate(2.9442379,-741.94794)"><path
           d="m -1313.7005,-945.9529 q -10.5915,0 -19.4928,-4.0176 -8.9014,-4.0175 -14.5351,-11.3316 l 18.5914,-17.7184 q 2.9296,3.5025 6.3098,5.3567 3.3803,1.8543 7.2112,1.8543 5.7465,0 8.676,-2.6784 3.0423,-2.7814 3.0423,-8.1381 v -114.655 h 27.9435 v 117.7454 q 0,15.9672 -9.9155,24.8265 -9.9154,8.7562 -27.8308,8.7562 z"
           id="path47"
           style="font-size:1343.78px;font-family:Bahnschrift;-inkscape-font-specification:'Bahnschrift, @wght=700,wdth=75';font-variation-settings:'wdth' 75, 'wght' 700;white-space:pre;fill:#000080;stroke:#29299a;stroke-width:0.01055;stroke-linecap:round;stroke-linejoin:round;stroke-opacity:1"
           aria-label="J" /><path
           d="m -1198.3918,-945.1803 q -12.9577,0 -22.197,-4.3266 -9.1267,-4.4296 -14.0844,-12.6708 -4.8451,-8.2411 -4.8451,-19.9847 v -8.0352 l 27.8308,-0.206 v 8.0351 q 0,5.6658 3.493,8.9623 3.4929,3.1934 9.69,3.1934 6.0845,0 9.3521,-3.1934 3.3802,-3.1935 3.3802,-8.7562 v -13.0829 q 0,-4.6356 -3.0422,-7.726 -2.9296,-3.1935 -7.8873,-5.6658 -4.9577,-2.5754 -10.7041,-5.1507 -5.5211,-2.5754 -11.2675,-5.7689 -5.6338,-3.1934 -10.3662,-7.623 -4.6197,-4.5326 -7.5492,-11.0225 -2.8169,-6.4899 -2.8169,-15.6582 v -7.7261 q 0,-17.3064 10.5915,-26.8867 10.7041,-9.5804 30.0843,-9.5804 18.8168,0 29.4082,9.6834 10.5915,9.6833 10.5915,27.1958 v 8.4471 l -27.8308,0.3091 v -8.5502 q 0,-5.7688 -3.2676,-8.9623 -3.1549,-3.2964 -8.9013,-3.2964 -6.0845,0 -9.4647,2.9874 -3.2676,2.8844 -3.2676,8.0351 v 9.9924 q 0,5.2537 3.3802,8.6532 3.493,3.2965 8.9014,5.8718 5.5211,2.4724 11.6055,5.4598 5.2958,2.4723 10.4788,5.3567 5.2958,2.8844 9.5774,7.005 4.3944,4.1206 6.9859,10.1984 2.7042,6.0779 2.7042,15.0401 v 12.4648 q 0,17.5124 -10.7041,27.2987 -10.5915,9.6834 -29.859,9.6834 z"
           id="path48"
           style="font-size:1343.78px;font-family:Bahnschrift;-inkscape-font-specification:'Bahnschrift, @wght=700,wdth=75';font-variation-settings:'wdth' 75, 'wght' 700;white-space:pre;fill:#000080;stroke:#29299a;stroke-width:0.01055;stroke-linecap:round;stroke-linejoin:round;stroke-opacity:1"
           aria-label="S" /><path
           d="m -1118.3505,-946.7255 v -24.5174 h 20.9576 q 5.6337,0 8.676,-3.0905 3.0422,-3.1934 3.0422,-8.8592 v -76.8487 q 0,-5.7688 -3.0422,-8.8592 -3.0423,-3.0904 -8.676,-3.0904 h -20.9576 v -24.5175 h 23.7745 q 17.69,0 27.3801,8.8593 9.8027,8.7562 9.8027,24.7234 v 82.6175 q 0,10.6105 -4.3943,18.1305 -4.3944,7.5201 -12.7323,11.5376 -8.338,3.9146 -20.1689,3.9146 z m -18.5915,0 v -149.7829 h 27.9435 v 149.7829 z"
           id="path49"
           style="font-size:1343.78px;font-family:Bahnschrift;-inkscape-font-specification:'Bahnschrift, @wght=700,wdth=75';font-variation-settings:'wdth' 75, 'wght' 700;white-space:pre;fill:#000080;stroke:#29299a;stroke-width:0.01055;stroke-linecap:round;stroke-linejoin:round;stroke-opacity:1"
           aria-label="D" /><path
           style="font-variation-settings:'wdth' 75, 'wght' 700;fill:#000000;fill-opacity:0;stroke:#29299a;stroke-width:10;stroke-linecap:round;stroke-linejoin:round;stroke-dasharray:none;stroke-opacity:1"
           d="m -1437.8733,-1045.307 103.7905,-97.8009 163.5757,-2.2242"
           id="path50" /><path
           style="font-variation-settings:'wdth' 75, 'wght' 700;fill:#000000;fill-opacity:0;stroke:#29299a;stroke-width:10;stroke-linecap:round;stroke-linejoin:round;stroke-dasharray:none;stroke-opacity:1"
           d="m -1435.2816,-986.15231 103.7905,97.8009 163.5757,2.2242"
           id="path51" /><path
           style="font-variation-settings:'wdth' 75, 'wght' 700;fill:#000000;fill-opacity:0;stroke:#29299a;stroke-width:10;stroke-linecap:round;stroke-linejoin:round;stroke-dasharray:none;stroke-opacity:1"
           d="m -1315.0628,-1130.735 -80.2194,108.3291 77.8335,117.0921"
           id="path52" /></g></g></g></svg>
